<?xml version="1.0" encoding="UTF-8" standalone="no"?>
<svg width="266px" height="44px" viewBox="0 0 266 44" version="1.1" xmlns="http://www.w3.org/2000/svg" xmlns:xlink="http://www.w3.org/1999/xlink">
    <!-- Generator: Sketch 48.2 (47327) - http://www.bohemiancoding.com/sketch -->
    <title>Page 1</title>
    <desc>Created with Sketch.</desc>
    <defs>
        <polygon id="path-1" points="0 43.1351351 266 43.1351351 266 0 0 0"></polygon>
    </defs>
    <g id="Logo-/-Full-Mark" stroke="none" stroke-width="1" fill="none" fill-rule="evenodd">
        <g id="Page-1">
            <path d="M79.2079801,20.8637426 C81.1144083,20.8637426 82.3852204,19.801539 82.3852204,18.2375456 C82.3852204,16.6735522 81.1144083,15.6109386 79.2079801,15.6109386 L73.610606,15.6109386 L73.610606,20.8637426 L79.2079801,20.8637426 Z M82.4457552,31.7522523 L75.7587533,24.4931092 L73.610606,24.4931092 L73.610606,31.7522523 L69.4954955,31.7522523 L69.4954955,11.981982 L79.2079801,11.981982 C83.5652301,11.981982 86.4700634,14.4901108 86.4700634,18.2375456 C86.4700634,21.5422247 84.2004259,23.9031782 80.6603968,24.404558 L87.4684685,31.7522523 L82.4457552,31.7522523 Z" id="Fill-1" fill="#3DCCD5"></path>
            <path d="M106.954023,16.8506544 L104.047413,23.9031782 L109.830553,23.9031782 L106.954023,16.8506544 Z M113.063508,31.7522523 L111.343194,27.5325448 L102.56444,27.5325448 L100.81487,31.7522523 L96.454955,31.7522523 L105.055703,11.981982 L108.822264,11.981982 L117.423423,31.7522523 L113.063508,31.7522523 Z" id="Fill-3" fill="#3DCCD5"></path>
            <polygon id="Fill-5" fill="#3DCCD5" points="132.281078 20.4506796 142.016501 20.4506796 142.016501 24.0805314 132.281078 24.0805314 132.281078 31.7522523 128.207207 31.7522523 128.207207 11.981982 143.184685 11.981982 143.184685 15.6110138 132.281078 15.6110138"></polygon>
            <polygon id="Fill-7" fill="#3DCCD5" points="163.487152 15.6113485 163.487152 31.7522523 159.427262 31.7522523 159.427262 15.6113485 152.77027 15.6113485 152.77027 11.981982 170.144144 11.981982 170.144144 15.6113485"></polygon>
            <polygon id="Fill-9" fill="#3DCCD5" points="195.306306 31.7522523 180.328829 31.7522523 180.328829 11.981982 195.247438 11.981982 195.247438 15.6113485 184.330645 15.6113485 184.330645 20.0671924 194.394257 20.0671924 194.394257 23.6375248 184.330645 23.6375248 184.330645 28.1224757 195.306306 28.1224757"></polygon>
            <polygon id="Fill-11" fill="#3DCCD5" points="222.265766 31.7522523 207.887387 31.7522523 207.887387 11.981982 211.9444 11.981982 211.9444 28.1224757 222.265766 28.1224757"></polygon>
            <mask id="mask-2" fill="white">
                <use xlink:href="#path-1"></use>
            </mask>
            <g id="Clip-14"></g>
            <polygon id="Fill-13" fill="#3DCCD5" mask="url(#mask-2)" points="233.648649 31.7522523 237.842342 31.7522523 237.842342 11.981982 233.648649 11.981982"></polygon>
            <path d="M261.67455,18.0032341 C261.378202,16.1155101 259.748698,14.8878237 257.763988,14.8878237 C255.749231,14.8878237 254.534615,16.0260347 254.534615,17.3739928 C254.534615,18.3923483 254.979138,19.1114812 256.519737,19.4107038 L260.785505,20.2796561 C264.014878,20.9688252 266,22.9156446 266,26.031055 C266,29.9246938 262.829897,32.3513514 258.119606,32.3513514 C253.971965,32.3513514 250.328116,30.4041158 249.824324,26.3902053 L254.060458,25.5216692 C254.593885,27.7980912 256.253024,28.786899 258.504447,28.786899 C260.815552,28.786899 262.030168,27.6786519 262.030168,26.2408021 C262.030168,25.102175 261.496741,24.4134221 259.719063,24.0538556 L255.512564,23.244831 C253.14219,22.7358613 250.29807,21.4178671 250.29807,17.4938483 C250.29807,13.8990159 253.20146,11.3828829 257.852893,11.3828829 C261.881994,11.3828829 264.933146,13.5997933 265.703652,17.1642457 L261.67455,18.0032341 Z" id="Fill-15" fill="#3DCCD5" mask="url(#mask-2)"></path>
            <path d="M34.3020675,33.5498723 L34.3020675,43.1351351 C23.8515486,43.1351351 20.0055392,37.8369133 17.197795,33.9681202 C16.061869,32.4034249 15.081538,31.0520028 13.7945691,30.174844 C11.9336368,28.9068226 9.51860441,28.7607677 7.86416652,28.7607677 L0,28.7607677 L0,19.174675 L20.4056996,19.174675 C23.0429514,19.174675 25.1877617,17.0241007 25.1877617,14.3801764 C25.1877617,11.736667 23.0429514,9.58567779 20.4056996,9.58567779 L0,9.58567779 L0,0 L20.4056996,0 C28.3137306,0 34.7477477,6.45130804 34.7477477,14.3801764 C34.7477477,20.7908214 30.5421319,26.2359279 24.7524269,28.0852642 C24.8116026,28.1661752 24.8695369,28.2470863 24.927885,28.3271675 C26.0646386,29.8947673 27.0474525,31.2490938 28.3398011,32.1287422 C30.2106649,33.4021577 32.6385257,33.5498723 34.3020675,33.5498723 Z" id="Fill-16" fill="#3DCCD5" mask="url(#mask-2)"></path>
        </g>
    </g>
</svg>